<svg version="1.1" id="Layer_1" xmlns="http://www.w3.org/2000/svg" xmlns:xlink="http://www.w3.org/1999/xlink" x="0px" y="0px"
	 viewBox="0 0 154 110" style="enable-background:new 0 0 154 110;" xml:space="preserve">
<style type="text/css">
	.st0{fill:#EA0029;}
	.st1{fill:none;}
	.st2{fill:#D02C2F;}
	.st3{fill:#282927;}
	.st4{fill:#FFFFFF;}
	.st5{fill:#171410;}
</style>
<g>
	<g>
		<path class="st0" d="M88.33,94.2h-7.59h-0.02h-7.59c0.48,4.64,2.14,9.83,7.59,12.09v0.01c0,0,0.01,0,0.01-0.01
			c0,0,0.01,0,0.01,0.01v-0.01C86.19,104.03,87.86,98.84,88.33,94.2"/>
		<rect x="73.3" y="94.2" class="st1" width="15.2" height="12.1"/>
		<g>
			<path class="st2" d="M74.86,95.41h13.49c0.06-0.4,0.11-0.8,0.15-1.2h-7.59h-0.02H73.3c0.48,4.64,2.14,9.83,7.59,12.09v0.01
				c0,0,0.01,0,0.01-0.01c0,0,0.01,0,0.01,0.01v-0.01c0.07-0.03-0.24-0.17-0.18-0.2c-1.51-0.87-2.69-2.05-3.61-3.4h6.49
				c0.06,0,0.12-0.04,0.15-0.09l1.18-2.55c0.01-0.01,0-0.02,0-0.03v0l-0.43-0.64l-0.9,1.1l-0.05,0.18c-0.35,0.08-0.7,0.12-0.95,0.13
				c-0.75,0.04-3.01,0-3.01,0l6.23-3.85c0.04-0.03,0.04-0.07,0.02-0.11l0,0L85.4,96.2l-1.22,0.49l0.02,0.11h-5.56
				c-0.05,0-0.11,0.03-0.14,0.08L78,97.69l-0.43-0.02l-0.84,0.81l0.43,0.64l0,0c0.01,0.02,0.04,0.02,0.06,0.01
				c0.56-0.44,1.38-0.49,1.86-0.5c0.62-0.01,1.88,0,1.88,0l-1.49,1.04l-2.39,2.11l-0.41,0.24c-1.15-1.96-1.79-4.2-2.05-6.37
				C74.63,95.51,74.73,95.41,74.86,95.41"/>
			<g>
				<g>
					<path class="st3" d="M38.21,95.39c-0.59,0-1.01,0.26-1.01,0.7c0,0.37,0.3,0.55,0.91,0.63l0.35,0.04
						c0.69,0.08,1.27,0.36,1.27,1.07c0,0.81-0.73,1.23-1.6,1.23c-0.58,0-1.2-0.2-1.59-0.52l0.28-0.4c0.28,0.25,0.8,0.45,1.32,0.45
						c0.6,0,1.07-0.24,1.07-0.7c0-0.37-0.34-0.55-0.97-0.63l-0.37-0.05c-0.67-0.08-1.2-0.39-1.2-1.08c0-0.77,0.69-1.21,1.54-1.21
						c0.61,0,1.07,0.18,1.45,0.44l-0.26,0.41C39.08,95.54,38.68,95.39,38.21,95.39"/>
					<rect x="43.23" y="94.96" class="st3" width="0.51" height="4.04"/>
					<polygon class="st3" points="50.42,99 47.98,95.83 47.98,99 47.47,99 47.47,94.96 47.93,94.96 50.37,98.13 50.37,94.96 
						50.88,94.96 50.88,99 					"/>
					<path class="st3" d="M58.12,95.74l-0.42,0.29c-0.27-0.39-0.7-0.63-1.23-0.63c-0.89,0-1.56,0.64-1.56,1.59
						c0,0.95,0.67,1.59,1.56,1.59c0.52,0,0.96-0.24,1.23-0.63l0.42,0.3c-0.34,0.5-0.95,0.82-1.64,0.82c-1.21,0-2.09-0.87-2.09-2.08
						c0-1.21,0.88-2.08,2.09-2.08C57.17,94.9,57.8,95.22,58.12,95.74"/>
					<polygon class="st3" points="61.59,99 61.59,94.96 64.43,94.96 64.43,95.44 62.1,95.44 62.1,96.72 64.36,96.72 64.36,97.21 
						62.1,97.21 62.1,98.52 64.46,98.52 64.46,99 					"/>
					<path class="st3" d="M97.4,94.9c0.82,0,1.3,0.54,1.3,1.26c0,0.5-0.28,0.86-0.54,1.14L97,98.53h1.83V99h-2.55v-0.38l1.51-1.59
						c0.24-0.25,0.4-0.52,0.4-0.86c0-0.45-0.29-0.79-0.81-0.79c-0.45,0-0.69,0.23-0.88,0.49l-0.35-0.29
						C96.35,95.3,96.7,94.9,97.4,94.9"/>
					<path class="st3" d="M105.06,96.98c0,1.49-0.69,2.08-1.51,2.08c-0.83,0-1.53-0.59-1.53-2.08c0-1.49,0.7-2.08,1.53-2.08
						C104.37,94.9,105.06,95.56,105.06,96.98 M102.53,96.98c0,1.18,0.47,1.61,1.02,1.61c0.54,0,1-0.42,1-1.61
						c0-1.12-0.46-1.61-1-1.61C103,95.37,102.53,95.79,102.53,96.98"/>
					<polygon class="st3" points="109.53,95.58 108.37,95.99 108.37,95.49 110.01,94.91 110.01,98.53 111.05,98.53 111.05,99 
						108.42,99 108.42,98.53 109.53,98.53 					"/>
					<polygon class="st3" points="115.56,95.58 114.41,95.99 114.41,95.49 116.05,94.91 116.05,98.53 117.09,98.53 117.09,99 
						114.45,99 114.45,98.53 115.56,98.53 					"/>
				</g>
				<path class="st4" d="M85.38,96.31l-6.23,3.85c0,0,2.26,0.04,3.01,0c0.6-0.03,1.68-0.18,2.28-0.78c0.03-0.03,0.07,0,0.06,0.04
					l-1.18,2.55c-0.03,0.06-0.08,0.09-0.15,0.09h-6.46c-0.07,0-0.1-0.09-0.05-0.13l4.48-3.93c0,0-1.87-0.01-2.49,0
					c-0.48,0.01-1.3,0.06-1.86,0.5c-0.04,0.03-0.09-0.01-0.06-0.06l1.32-2.19c0.03-0.05,0.08-0.08,0.14-0.08h7.14
					C85.41,96.16,85.44,96.26,85.38,96.31 M88.88,94.62c-0.65,6.21-3.26,10.31-7.77,12.19c-0.1,0.05-0.2,0.09-0.31,0.1
					c-0.02,0-0.05,0-0.08,0.01c-0.02,0-0.05,0-0.07-0.01c-0.11-0.01-0.21-0.04-0.31-0.1c-4.51-1.88-7.12-5.98-7.76-12.19
					c-0.02-0.23,0.05-0.45,0.2-0.62c0.15-0.17,0.37-0.27,0.6-0.27h3.02h0.96h3.36h3.37h0.96h3.02c0.23,0,0.45,0.1,0.6,0.27
					C88.83,94.17,88.91,94.39,88.88,94.62 M88.05,94.78c0.02-0.13-0.09-0.24-0.22-0.24h-7.11h-7.1c-0.13,0-0.23,0.11-0.22,0.24
					c0.49,4.37,2.14,9.19,7.32,11.31C85.91,103.97,87.56,99.15,88.05,94.78"/>
			</g>
		</g>
	</g>
	<g>
		<path class="st3" d="M94.47,44.73l-0.04-0.06l0.02-0.08c0.54-2.46-2.14-5.24-7.96-8.28l-0.11-0.05l0.07-1.38
			c1.26-5.34,3.64-7.34,5.56-8.96c1.13-0.95,2.11-1.77,2.43-3.04c0.47-1.89-0.83-3.95-4.42-8.94c-0.14-0.2-0.38-0.3-0.62-0.26
			c-0.24,0.04-0.44,0.22-0.51,0.45c-0.31,1.08-1.97,3.84-6.16,7.31c-3.84,3.17-5.84,6.79-5.49,9.94c0.06,0.57,0.17,1.12,0.31,1.62
			l0.3,1.04l-0.63-0.88c-0.61-0.86-1.26-1.85-1.93-2.95c-0.33-0.55-0.68-1.17-1.05-1.82c-1.54-2.76-3.45-6.18-6.61-8.37
			C55.43,11.58,46.66,3.53,46.57,3.45c-0.16-0.15-0.4-0.21-0.61-0.14c-0.21,0.06-0.38,0.23-0.44,0.45
			c-0.12,0.47-2.94,11.59,5.3,23.56c3.95,5.74,8.83,7.72,12.16,8.72c2.26,0.67,5.07,1.51,6.46,3.78c0.06,0.09,0.34,0.65,0.37,0.71
			l0.1,0.19l-0.2,0.07c-4.76,1.71-13.9,5.01-14.43,5.32c-0.3,0.17-0.27,0.39-0.19,0.55c0.04,0.07,5.3,6.72,12.96,4.17
			c2.07-0.69,3.35-2.12,3.36-2.14l0.19-0.22l0.12,0.26c1.26,2.7,3.66,7.84,3.74,7.99l0.17,0.33L75.26,57
			c-0.78-0.1-1.48,0.29-1.87,0.7h-4.83v0.72h23.52V57.7h-2.76c-0.08-0.36-0.27-0.66-0.56-0.9c-0.69-0.56-1.89-0.7-3.28-0.4
			l-0.17,0.04l-0.05-0.17c-0.56-1.93-2.22-8.35-0.24-10.09c0.85-0.74,2.06-0.7,3.61,0.12c1.32,0.71,2.4,1.75,2.51,1.88
			c0.07,0.08,0.11,0.14,0.15,0.19l0.06,0.09l-0.05,0.1c-0.07,0.15-0.09,0.31-0.04,0.47c0.08,0.25,0.3,0.43,0.57,0.45
			c0.95,0.07,2.22-0.28,2.96-1.44C95.43,47.03,95.05,45.67,94.47,44.73"/>
		<rect x="65.28" y="59.64" class="st5" width="30.09" height="0.72"/>
		<path class="st4" d="M94.95,48.15c-0.79,1.24-2.14,1.6-3.14,1.53c-0.34-0.03-0.63-0.26-0.73-0.59c-0.06-0.21-0.04-0.43,0.06-0.61
			c-0.03-0.05-0.07-0.1-0.14-0.17c-0.11-0.13-1.16-1.14-2.46-1.83c-1.47-0.78-2.61-0.83-3.4-0.14c-1.43,1.26-0.95,5.6,0.3,9.9
			c2.21-0.49,3.81,0.16,4.08,1.48h-1.15c-0.15-0.8-1.4-1.63-3.65-1.02c-0.59-1.9-2.58-8.87-0.13-11.03
			c2.55-2.24,6.68,1.67,7.02,2.06c0.72,0.82,0.24,1.09,0.25,1.09c0.17,0.04,1.57,0.13,2.38-1.15c0.54-0.85,0.06-2.14-0.52-2.93
			c0.64-1.75-0.64-4.63-9.4-8.82c-3.72-1.78-4.96-6.67-0.8-9.59c-0.62,0.44-2.7,5.23,0.45,8.06c-0.93-3.15,0.07-9.05,7.42-11.58
			c-7.86,4.76-5.59,11.93-5.59,11.93c2.04-8.75,7.27-9.12,8-12.05c0.4-1.58-0.85-3.59-4.32-8.41c-0.36,1.23-2.1,4.1-6.37,7.63
			c-3.06,2.53-5.64,5.98-5.27,9.38c0.57,5.22,4.72,5.79,6.32,6.45c-3.87-0.79-7.2,0.4-8.6,1.16c0,0,4.18,0.23,6.87,1.27
			c-2.9,0.59-5.61,1.65-7.13,3.15c0,0,4.38-1.38,8.37-0.82c-2.88,1.87-3.6,5.4-3.6,5.4s-0.51-1.88,0.58-4.32
			c-5.8,3.31-3.38,10.06-3.38,10.06s-4.07-5.21-0.24-9.26c-2.39-0.45-4.42,0.2-6.01,0.62c0,0,2.3-3.28,7.07-4.46
			c-5.59-0.63-7.68-3.58-7.78-3.61c3.76,0.97,7.06,0.04,7.06,0.04c-6.28-0.63-10.74-3.61-12.4-6.02c5.09,2.31,8.1,2.04,8.1,2.04
			c-4.65-1.81-8.68-3.69-11.49-8.37c3.19,2.58,7.66,3.12,7.66,3.12c-4.23-2.38-9.68-5.99-12.67-12.01c3.32,2.39,7.94,5.42,8.77,6.04
			c0.83,0.61,2.76,1.67,4.11,3.74c2.05,3.14,2.6,4.98,5.41,8.58c1.66,2.13,3.26,2.51,4.93,2.44c0,0-1.86-0.18-5.08-6.01
			c-1.64-2.96-3.7-7.39-7.48-10C54.88,11.92,46.13,3.86,46.13,3.86s-2.96,11.18,5.2,23.04c3.65,5.3,8.09,7.35,11.82,8.47
			c2.65,0.79,5.37,1.69,6.82,4.05c0.23,0.39,0.84,1.64,0.84,1.64l-14.95,5.47c0,0,5.42,6.12,11.99,3.64
			c1.17-0.44,2.52-1.31,4.03-3.21c0,0,3.98,8.93,4.47,10.1c-1.29-0.11-1.73,0.25-1.96,0.65h-1.24c0.4-0.5,1.22-1.01,2.14-0.88
			c-0.07-0.13-3.74-8.01-3.74-8.01s-1.3,1.48-3.44,2.19c-7.68,2.56-13.03-3.96-13.19-4.27c-0.14-0.27-0.1-0.59,0.26-0.8
			c0.7-0.39,14.46-5.33,14.46-5.33s-0.31-0.61-0.37-0.7c-1.29-2.11-3.78-2.93-6.35-3.69c-3.36-1-8.28-3-12.26-8.79
			C42.38,15.39,45.22,4.17,45.34,3.7c0.08-0.28,0.29-0.5,0.57-0.58c0.28-0.08,0.57-0.01,0.79,0.18c0.09,0.08,8.86,8.12,21.03,16.56
			c3.2,2.21,5.12,5.66,6.67,8.43c0.37,0.66,0.71,1.27,1.05,1.82c0.73,1.21,1.37,2.17,1.92,2.94c-0.14-0.5-0.25-1.05-0.32-1.66
			c-0.35-3.21,1.68-6.89,5.56-10.11c4.16-3.44,5.79-6.16,6.1-7.22c0.09-0.3,0.34-0.53,0.65-0.58c0.31-0.05,0.62,0.08,0.81,0.33
			c3.62,5.04,4.94,7.13,4.44,9.1c-0.33,1.32-1.33,2.16-2.49,3.14c-1.9,1.6-4.26,3.58-5.49,8.82l-0.07,1.26
			c5.91,3.08,8.62,5.94,8.06,8.49C95.29,45.7,95.61,47.11,94.95,48.15 M81.96,56.54c-0.86-1.52-2.23-3.89-3.04-6.41
			c-0.14,0.26,0.38,6.8,0.38,6.8c2.28-0.76,3.14,0.16,3.33,0.78h1.01C83.48,56.7,82.45,56.48,81.96,56.54 M84.16,44.32
			c3.33-1.72,6.68,1.05,7.13,1.33c-0.14-1.33-1.36-2.76-1.36-2.76s1.13-0.17,2.25,1.17c0.12,0.14,0.3,0.41,0.47,0.68
			c0.11,0.17,0.37,0.07,0.34-0.12c-0.12-0.9-0.35-3.63-6.83-6.16c1.41,0.81,2.62,1.82,3.31,2.88c-0.26-0.12-3.04-1.02-5.15-0.91
			c1.79,0.54,4.05,1.29,5.3,2.86C89.62,43.28,86.44,41.86,84.16,44.32 M83.06,54.14c0,0-1.17-3.39-0.66-6.1
			C79.57,51.09,83.06,54.14,83.06,54.14 M67.16,34.59c-0.62-0.4-3.83-1.3-4.81-4.33c-3.39-0.54-6.72-2.18-8.63-4.02
			C55.21,30.34,62.38,34.11,67.16,34.59 M68.68,43.67c0,0-1.84,0.87-9.1,3.41c1,1.17,4.34,2.9,7.13,1.8c3.09-1.22,3.3-3.38,3.3-3.38
			c-0.06,0.07-3.06,2.75-7.17,2.7C64.79,47.29,67.74,45.29,68.68,43.67 M58.55,21.73c-1.04-1.04-4.62-3.67-4.69-7.77
			c0,0-4.42-3.39-5.92-5.38C47.63,15.06,55.54,21.12,58.55,21.73 M62.77,28.51c-1.56-0.88-3.07-2.3-3.84-4.68
			c-0.45-0.13-5.89-1.47-9.78-7.63C50.19,26.72,62.77,28.51,62.77,28.51"/>
	</g>
	<g>
		<path class="st3" d="M126.93,84.74h6.71c-0.54-0.66-0.83-1.65-0.83-2.8v-11.1c0-1.41,0.19-2.16,0.75-2.77h-6.56
			c0.56,0.61,0.76,1.36,0.76,2.77v11.1C127.76,83.09,127.46,84.09,126.93,84.74"/>
		<path class="st3" d="M55.7,68.08h-7.24c0.51,0.63,0.78,1.58,0.78,2.77v11.09c0,1.19-0.26,2.17-0.8,2.8h7.26
			c5.34,0,8.74-3.21,8.74-8.26C64.44,71.31,61.07,68.08,55.7,68.08 M55.21,83.45h-0.92V69.37h0.78c2.58,0,4.08,2.6,4.08,7.04
			C59.15,80.93,57.76,83.45,55.21,83.45"/>
		<path class="st3" d="M35.49,70.85v11.09c0,1.15-0.29,2.14-0.82,2.8h11.56v-3.6c-1.87,2.06-3.64,2.31-5.69,2.31v-6.48
			c1.85,0,2.74,0.07,4.47,0.95v-3.26c-1.68,0.85-2.57,0.95-4.47,0.95v-6.24c2.02-0.03,3.79,0.27,5.69,2.5V68.1l-11.49-0.02
			C35.3,68.69,35.49,69.44,35.49,70.85"/>
		<path class="st3" d="M32.6,68.08H20.53v4.1c1.92-1.77,4.1-2.82,6.02-2.82l-6.19,15.38h12.31v-3.96c-1.82,1.46-4.25,2.53-6.27,2.53
			L32.6,68.08z"/>
		<path class="st3" d="M124.7,68.08h-3.77c0.53,0.66,0.83,1.65,0.83,2.79v6.97l-7.77-9.76h-3.98c0.56,0.61,0.75,1.36,0.75,2.77v11.1
			c0,1.14-0.29,2.14-0.82,2.79h3.79c-0.54-0.66-0.83-1.66-0.83-2.79v-6.9l7.72,9.69h4.06c-0.51-0.63-0.78-1.58-0.78-2.77V70.85
			C123.89,69.29,124.19,68.64,124.7,68.08"/>
		<path class="st3" d="M93.9,68.08H81.83v4.1c1.92-1.77,4.11-2.82,6.03-2.82l-6.19,15.38h12.32v-3.96c-1.83,1.6-4.25,2.67-6.27,2.67
			L93.9,68.08z"/>
		<path class="st3" d="M79.65,82l-4.61-13.92h-5.97c0.29,0.49,0.36,1.17,0.17,1.77L65.41,82c-0.37,1.19-1.02,2.16-1.79,2.74h4.1
			c-0.46-0.51-0.73-1.17-0.34-2.45l0.48-1.58h6.28l0.48,1.58c0.34,1.12,0.1,1.92-0.34,2.45h7.14C80.49,84.01,80.11,83.35,79.65,82
			 M68.34,79.13l2.64-8.69l2.67,8.69H68.34z"/>
		<path class="st3" d="M96.8,70.85v11.09c0,1.15-0.3,2.14-0.83,2.8h11.56v-3.6c-1.87,2.06-3.64,2.31-5.69,2.31v-6.48
			c1.84,0,2.74,0.07,4.47,0.95v-3.26c-1.68,0.85-2.57,0.95-4.47,0.95v-6.24c2.02-0.03,3.79,0.27,5.69,2.5V68.1l-11.49-0.02
			C96.59,68.69,96.8,69.44,96.8,70.85"/>
	</g>
</g>
</svg>
